<?xml version="1.0" standalone="no"?>
<!DOCTYPE svg PUBLIC "-//W3C//DTD SVG 20010904//EN"
 "http://www.w3.org/TR/2001/REC-SVG-20010904/DTD/svg10.dtd">
<svg version="1.0" xmlns="http://www.w3.org/2000/svg"
 width="398.000000pt" height="392.000000pt" viewBox="0 0 398.000000 392.000000"
 preserveAspectRatio="xMidYMid meet">

<g transform="translate(0.000000,392.000000) scale(0.100000,-0.100000)"
fill="#000000" stroke="none">
<path d="M1389 3277 c-19 -27 -36 -60 -39 -75 -4 -22 -11 -28 -38 -30 -64 -6
-60 -86 5 -94 23 -2 29 -8 31 -35 3 -30 1 -33 -22 -33 -24 0 -66 -30 -66 -48
0 -23 34 -52 61 -52 28 0 30 -2 27 -32 -2 -26 -8 -33 -35 -40 -73 -19 -59 -98
17 -98 18 0 21 -5 18 -32 -2 -27 -8 -34 -29 -36 -15 -2 -35 -12 -45 -23 -26
-29 -5 -69 36 -69 23 0 31 -5 36 -25 13 -51 4 -55 -119 -55 -102 0 -118 -2
-148 -23 -21 -14 -39 -38 -48 -63 -13 -38 -13 -44 8 -86 16 -33 32 -50 61 -63
l40 -18 0 -652 0 -653 -23 -6 c-38 -9 -75 -44 -87 -82 -16 -48 7 -112 51 -138
30 -18 76 -19 959 -19 874 0 929 1 958 18 38 23 52 53 52 111 0 37 -6 51 -29
75 -16 16 -43 32 -60 35 l-31 7 0 651 0 651 43 18 c25 10 50 29 60 46 22 37
22 104 1 137 -30 44 -63 54 -189 54 l-115 0 0 35 c0 30 4 36 28 41 37 9 52 23
52 48 0 30 -18 46 -52 46 -25 0 -28 3 -28 34 0 31 3 34 34 40 71 13 59 96 -13
96 -17 0 -21 6 -21 35 0 30 3 35 24 35 28 0 56 24 56 46 0 32 -21 54 -50 54
-28 0 -30 3 -30 35 0 32 3 35 28 35 33 0 52 16 52 45 0 29 -19 45 -51 45 -21
0 -28 6 -33 28 -9 35 -68 123 -81 119 -18 -6 -75 -99 -75 -123 0 -21 -5 -24
-35 -24 -33 0 -55 -20 -55 -49 0 -19 32 -41 61 -41 27 0 29 -3 29 -35 0 -32
-3 -35 -28 -35 -31 0 -62 -26 -62 -52 0 -23 33 -48 63 -48 24 0 27 -4 27 -35
0 -32 -3 -35 -28 -35 -31 0 -62 -27 -62 -53 0 -20 38 -47 67 -47 20 0 23 -5
23 -35 0 -32 -2 -35 -29 -35 -33 0 -61 -22 -61 -49 0 -26 21 -41 57 -41 32 0
33 -1 33 -40 l0 -40 -225 0 -225 0 0 40 c0 37 2 40 28 40 34 0 52 16 52 47 0
24 -26 43 -59 43 -17 0 -21 6 -21 35 0 27 4 35 18 35 26 0 62 29 62 50 0 26
-27 50 -56 50 -21 0 -24 5 -24 35 0 30 3 35 23 35 27 0 57 28 57 53 0 23 -28
47 -56 47 -21 0 -24 5 -24 35 0 30 3 35 24 35 45 0 72 50 44 78 -7 7 -25 12
-40 12 -22 0 -29 6 -34 28 -7 27 -56 106 -74 117 -12 8 -77 -82 -85 -117 -5
-23 -12 -28 -35 -28 -33 0 -54 -28 -43 -57 9 -24 23 -33 56 -33 24 0 27 -4 27
-35 0 -32 -2 -35 -30 -35 -20 0 -35 -8 -46 -25 -15 -23 -15 -27 0 -50 11 -17
26 -25 46 -25 28 0 30 -3 30 -35 0 -31 -3 -35 -25 -35 -25 0 -65 -31 -65 -50
0 -19 40 -50 65 -50 22 0 25 -4 25 -35 0 -32 -2 -35 -29 -35 -30 0 -61 -22
-61 -44 0 -23 25 -45 55 -48 27 -3 30 -7 33 -40 l3 -38 -225 0 -226 0 0 38 c0
34 3 38 26 40 35 3 54 19 54 46 0 30 -18 46 -52 46 -25 0 -28 3 -28 34 0 31 3
34 34 40 66 13 58 96 -10 96 -21 0 -24 5 -24 35 0 30 3 35 24 35 29 0 56 24
56 50 0 26 -27 50 -56 50 -21 0 -24 5 -24 35 0 29 4 35 21 35 33 0 59 19 59
43 0 30 -18 47 -49 47 -21 0 -29 8 -44 43 -9 24 -30 59 -46 77 l-28 34 -34
-47z m757 -1204 c-12 -58 -66 -399 -66 -415 0 -15 14 -18 119 -20 l120 -3 -97
-121 c-240 -299 -334 -414 -342 -419 -4 -3 -6 3 -4 12 2 10 13 77 24 148 33
211 41 259 47 278 4 15 -6 17 -116 17 -72 0 -121 4 -121 10 0 5 59 83 131 172
73 90 168 209 213 265 45 56 85 102 89 102 5 1 6 -11 3 -26z"/>
</g>
</svg>
