<svg xmlns="http://www.w3.org/2000/svg" xmlns:xlink="http://www.w3.org/1999/xlink" width="25.5" height="25" viewBox="0 0 83 82" version="1.1">
<g id="surface1">
<path style=" stroke:none;fill-rule:nonzero;fill:rgb(0.392157%,0.784314%,0.784314%);fill-opacity:1;" d="M 0 0 C 27.390625 0 54.78125 0 83 0 C 83 27.058594 83 54.121094 83 82 C 55.609375 82 28.21875 82 0 82 C 0 54.941406 0 27.878906 0 0 Z M 0 0 "></path>
<path style=" stroke:none;fill-rule:nonzero;fill:rgb(78.823529%,78.823529%,78.823529%);fill-opacity:1;" d="M 43.101562 42.988281 C 54.640625 42.988281 66.183594 42.988281 78.074219 42.988281 C 78.09375 48.152344 78.113281 53.320312 78.136719 58.640625 C 78.144531 60.273438 78.152344 61.902344 78.164062 63.582031 C 78.167969 65.574219 78.167969 65.574219 78.167969 66.507812 C 78.167969 67.160156 78.171875 67.808594 78.179688 68.460938 C 78.1875 69.449219 78.1875 70.433594 78.1875 71.421875 C 78.191406 71.710938 78.191406 72 78.195312 72.296875 C 78.1875 74.09375 77.992188 75.554688 76.742188 76.910156 C 75.605469 77.929688 74.546875 78.335938 73.042969 78.332031 C 72.78125 78.332031 72.515625 78.332031 72.242188 78.335938 C 71.953125 78.332031 71.667969 78.332031 71.367188 78.328125 C 71.058594 78.328125 70.75 78.328125 70.429688 78.328125 C 69.589844 78.328125 68.753906 78.328125 67.917969 78.324219 C 67.128906 78.320312 66.34375 78.320312 65.558594 78.320312 C 63.257812 78.316406 60.960938 78.308594 58.664062 78.304688 C 53.527344 78.292969 48.390625 78.285156 43.101562 78.273438 C 43.101562 66.628906 43.101562 54.984375 43.101562 42.988281 Z M 43.101562 42.988281 "></path>
<path style=" stroke:none;fill-rule:nonzero;fill:rgb(96.470588%,76.078431%,24.313725%);fill-opacity:1;" d="M 43.101562 4.722656 C 48.222656 4.699219 53.339844 4.679688 58.617188 4.660156 C 60.230469 4.648438 61.847656 4.640625 63.511719 4.632812 C 65.488281 4.628906 65.488281 4.628906 66.414062 4.625 C 67.058594 4.625 67.703125 4.621094 68.347656 4.617188 C 69.328125 4.609375 70.304688 4.609375 71.285156 4.609375 C 71.570312 4.605469 71.855469 4.601562 72.152344 4.597656 C 73.933594 4.605469 75.378906 4.804688 76.722656 6.066406 C 77.734375 7.214844 78.136719 8.277344 78.132812 9.796875 C 78.132812 10.195312 78.132812 10.195312 78.136719 10.605469 C 78.132812 11.039062 78.132812 11.039062 78.128906 11.488281 C 78.128906 11.800781 78.128906 12.113281 78.128906 12.433594 C 78.128906 13.28125 78.128906 14.125 78.125 14.96875 C 78.121094 15.761719 78.121094 16.554688 78.121094 17.347656 C 78.117188 19.667969 78.109375 21.988281 78.105469 24.304688 C 78.09375 29.484375 78.085938 34.667969 78.074219 40.007812 C 66.53125 40.007812 54.992188 40.007812 43.101562 40.007812 C 43.101562 28.363281 43.101562 16.71875 43.101562 4.722656 Z M 43.101562 4.722656 "></path>
<path style=" stroke:none;fill-rule:nonzero;fill:rgb(54.117647%,86.666667%,98.823529%);fill-opacity:1;" d="M 10.203125 4.660156 C 10.464844 4.660156 10.730469 4.660156 11.003906 4.660156 C 11.292969 4.660156 11.582031 4.664062 11.878906 4.664062 C 12.1875 4.664062 12.496094 4.664062 12.816406 4.664062 C 13.65625 4.664062 14.492188 4.667969 15.328125 4.671875 C 16.117188 4.671875 16.902344 4.675781 17.6875 4.675781 C 19.988281 4.675781 22.285156 4.683594 24.582031 4.691406 C 29.71875 4.699219 34.855469 4.710938 40.144531 4.722656 C 40.144531 16.363281 40.144531 28.007812 40.144531 40.007812 C 28.683594 40.007812 17.226562 40.007812 5.417969 40.007812 C 5.398438 34.753906 5.378906 29.5 5.355469 24.085938 C 5.347656 22.429688 5.339844 20.773438 5.328125 19.0625 C 5.324219 17.039062 5.324219 17.039062 5.324219 16.089844 C 5.324219 15.425781 5.320312 14.765625 5.3125 14.101562 C 5.304688 13.097656 5.304688 12.09375 5.304688 11.089844 C 5.304688 10.796875 5.300781 10.503906 5.296875 10.199219 C 5.304688 8.5625 5.425781 7.539062 6.402344 6.210938 C 7.550781 5.113281 8.625 4.660156 10.203125 4.660156 Z M 10.203125 4.660156 "></path>
<path style=" stroke:none;fill-rule:nonzero;fill:rgb(92.941176%,92.941176%,92.941176%);fill-opacity:1;" d="M 5.417969 42.988281 C 16.878906 42.988281 28.339844 42.988281 40.144531 42.988281 C 40.144531 54.550781 40.144531 66.113281 40.144531 78.023438 C 34.9375 78.042969 29.730469 78.066406 24.367188 78.085938 C 21.902344 78.101562 21.902344 78.101562 19.386719 78.113281 C 17.378906 78.117188 17.378906 78.117188 16.4375 78.117188 C 15.78125 78.121094 15.125 78.125 14.46875 78.128906 C 13.476562 78.136719 12.480469 78.136719 11.484375 78.136719 C 11.195312 78.140625 10.902344 78.144531 10.601562 78.148438 C 8.980469 78.140625 7.964844 78.019531 6.648438 77.03125 C 5.664062 75.957031 5.386719 75.183594 5.390625 73.734375 C 5.386719 73.464844 5.386719 73.195312 5.386719 72.917969 C 5.386719 72.621094 5.390625 72.320312 5.390625 72.015625 C 5.390625 71.699219 5.390625 71.378906 5.390625 71.050781 C 5.390625 70.191406 5.390625 69.332031 5.394531 68.472656 C 5.394531 67.664062 5.394531 66.859375 5.394531 66.050781 C 5.394531 63.691406 5.398438 61.328125 5.402344 58.96875 C 5.40625 53.695312 5.414062 48.421875 5.417969 42.988281 Z M 5.417969 42.988281 "></path>
<path style=" stroke:none;fill-rule:nonzero;fill:rgb(96.470588%,96.470588%,96.470588%);fill-opacity:1;" d="M 0 0 C 27.390625 0 54.78125 0 83 0 C 83 27.058594 83 54.121094 83 82 C 55.609375 82 28.21875 82 0 82 C 0 54.941406 0 27.878906 0 0 Z M 3.769531 4.5 C 2.421875 6.457031 2.144531 8.066406 2.152344 10.410156 C 2.148438 10.683594 2.148438 10.957031 2.148438 11.238281 C 2.144531 12.15625 2.144531 13.070312 2.144531 13.988281 C 2.144531 14.644531 2.140625 15.300781 2.140625 15.957031 C 2.136719 17.558594 2.132812 19.15625 2.132812 20.753906 C 2.132812 22.054688 2.132812 23.355469 2.132812 24.65625 C 2.128906 28.347656 2.125 32.039062 2.125 35.726562 C 2.125 35.925781 2.125 36.125 2.125 36.328125 C 2.125 36.527344 2.125 36.726562 2.125 36.933594 C 2.125 40.15625 2.121094 43.382812 2.113281 46.605469 C 2.105469 49.921875 2.101562 53.234375 2.105469 56.546875 C 2.105469 58.40625 2.101562 60.265625 2.097656 62.125 C 2.09375 63.710938 2.09375 65.292969 2.09375 66.875 C 2.097656 67.683594 2.097656 68.488281 2.09375 69.296875 C 2.089844 70.175781 2.089844 71.050781 2.09375 71.929688 C 2.089844 72.304688 2.089844 72.304688 2.085938 72.691406 C 2.113281 75.484375 3.027344 77.804688 4.957031 79.808594 C 6.925781 81.0625 8.910156 81.402344 11.199219 81.378906 C 11.472656 81.378906 11.742188 81.382812 12.023438 81.382812 C 12.925781 81.386719 13.824219 81.382812 14.726562 81.378906 C 15.378906 81.378906 16.027344 81.382812 16.675781 81.382812 C 18.253906 81.386719 19.828125 81.386719 21.40625 81.382812 C 23.246094 81.375 25.082031 81.378906 26.921875 81.378906 C 30.203125 81.378906 33.480469 81.375 36.761719 81.371094 C 39.941406 81.363281 43.121094 81.363281 46.300781 81.367188 C 49.769531 81.367188 53.238281 81.367188 56.703125 81.363281 C 57.074219 81.363281 57.445312 81.363281 57.8125 81.363281 C 57.996094 81.363281 58.175781 81.363281 58.367188 81.363281 C 59.644531 81.363281 60.925781 81.363281 62.203125 81.363281 C 63.765625 81.363281 65.324219 81.363281 66.886719 81.359375 C 67.679688 81.355469 68.476562 81.355469 69.273438 81.355469 C 70.136719 81.359375 71 81.355469 71.863281 81.351562 C 72.113281 81.351562 72.363281 81.355469 72.617188 81.355469 C 75.078125 81.332031 77.179688 80.660156 79.058594 79.019531 C 80.871094 76.910156 81.105469 74.726562 81.09375 72.035156 C 81.097656 71.625 81.097656 71.625 81.097656 71.210938 C 81.101562 70.296875 81.101562 69.386719 81.101562 68.476562 C 81.101562 67.820312 81.105469 67.167969 81.105469 66.511719 C 81.109375 64.921875 81.113281 63.328125 81.113281 61.738281 C 81.113281 60.445312 81.113281 59.148438 81.113281 57.855469 C 81.117188 54.183594 81.121094 50.507812 81.121094 46.835938 C 81.121094 46.636719 81.121094 46.441406 81.121094 46.234375 C 81.121094 45.9375 81.121094 45.9375 81.121094 45.636719 C 81.121094 42.425781 81.125 39.21875 81.132812 36.007812 C 81.140625 32.707031 81.144531 29.410156 81.140625 26.109375 C 81.140625 24.261719 81.144531 22.410156 81.148438 20.558594 C 81.152344 18.984375 81.15625 17.40625 81.152344 15.832031 C 81.148438 15.027344 81.148438 14.226562 81.152344 13.421875 C 81.15625 12.550781 81.15625 11.675781 81.152344 10.804688 C 81.15625 10.429688 81.15625 10.429688 81.160156 10.042969 C 81.140625 7.960938 80.640625 6.15625 79.519531 4.394531 C 77.230469 2.238281 74.949219 1.664062 71.910156 1.671875 C 71.636719 1.671875 71.367188 1.671875 71.085938 1.667969 C 70.179688 1.667969 69.269531 1.667969 68.359375 1.667969 C 67.710938 1.664062 67.058594 1.664062 66.40625 1.664062 C 64.820312 1.65625 63.234375 1.65625 61.648438 1.65625 C 60.359375 1.65625 59.070312 1.65625 57.777344 1.652344 C 54.121094 1.648438 50.460938 1.648438 46.804688 1.648438 C 46.605469 1.648438 46.410156 1.648438 46.207031 1.648438 C 46.007812 1.648438 45.8125 1.648438 45.609375 1.648438 C 42.410156 1.648438 39.210938 1.644531 36.015625 1.636719 C 32.726562 1.628906 29.441406 1.625 26.15625 1.625 C 24.3125 1.625 22.46875 1.625 20.625 1.617188 C 19.054688 1.613281 17.484375 1.613281 15.914062 1.617188 C 15.113281 1.617188 14.3125 1.617188 13.515625 1.613281 C 12.644531 1.609375 11.777344 1.613281 10.90625 1.617188 C 10.65625 1.613281 10.40625 1.613281 10.144531 1.609375 C 7.722656 1.632812 5.324219 2.546875 3.769531 4.5 Z M 3.769531 4.5 "></path>
<path style=" stroke:none;fill-rule:nonzero;fill:rgb(1.568627%,0.784314%,0.392157%);fill-opacity:1;" d="M 61.328125 9.9375 C 61.738281 10.207031 61.738281 10.207031 62.066406 10.683594 C 62.136719 11.519531 62.136719 11.519531 62.113281 12.472656 C 62.101562 12.945312 62.101562 12.945312 62.089844 13.429688 C 62.082031 13.671875 62.074219 13.914062 62.066406 14.164062 C 62.292969 14.195312 62.519531 14.226562 62.757812 14.261719 C 63.542969 14.414062 63.542969 14.414062 64.3125 14.832031 C 64.96875 15.222656 64.96875 15.222656 65.511719 15.050781 C 66 14.6875 66 14.6875 66.335938 14.292969 C 67.316406 13.191406 67.316406 13.191406 68.40625 13.046875 C 69.207031 13.167969 69.207031 13.167969 69.699219 13.667969 C 69.855469 14.441406 69.855469 14.441406 69.699219 15.40625 C 69.109375 16.148438 68.445312 16.773438 67.730469 17.394531 C 67.976562 18.023438 68.230469 18.652344 68.5 19.273438 C 68.714844 19.878906 68.714844 19.878906 68.714844 20.871094 C 68.957031 20.863281 69.195312 20.855469 69.445312 20.847656 C 69.757812 20.839844 70.070312 20.832031 70.394531 20.824219 C 70.703125 20.816406 71.015625 20.808594 71.335938 20.800781 C 72.164062 20.871094 72.164062 20.871094 72.636719 21.203125 C 73.050781 21.855469 72.996094 22.355469 72.902344 23.109375 C 72.636719 23.527344 72.636719 23.527344 72.164062 23.855469 C 71.335938 23.925781 71.335938 23.925781 70.394531 23.902344 C 70.078125 23.894531 69.765625 23.886719 69.445312 23.878906 C 69.082031 23.867188 69.082031 23.867188 68.714844 23.855469 C 68.691406 24.117188 68.664062 24.378906 68.636719 24.648438 C 68.46875 25.59375 68.46875 25.59375 68.054688 26.261719 C 67.664062 26.800781 67.664062 26.800781 67.835938 27.316406 C 68.195312 27.792969 68.554688 28.132812 68.992188 28.527344 C 69.636719 29.152344 69.695312 29.285156 69.839844 30.238281 C 69.699219 31.0625 69.699219 31.0625 69.40625 31.542969 C 68.792969 31.90625 68.433594 31.890625 67.730469 31.804688 C 67.121094 31.324219 66.613281 30.789062 66.074219 30.230469 C 65.542969 29.746094 65.542969 29.746094 64.867188 29.863281 C 64.457031 30.007812 64.050781 30.164062 63.652344 30.332031 C 63.050781 30.5625 63.050781 30.5625 62.066406 30.5625 C 62.078125 30.804688 62.089844 31.042969 62.101562 31.289062 C 62.113281 31.761719 62.113281 31.761719 62.125 32.242188 C 62.136719 32.550781 62.148438 32.863281 62.160156 33.183594 C 62.066406 34.042969 62.066406 34.042969 61.609375 34.644531 C 61.082031 35.035156 61.082031 35.035156 60.449219 35.144531 C 59.710938 35.011719 59.539062 34.910156 59.109375 34.289062 C 59.054688 33.632812 59.039062 33.035156 59.0625 32.378906 C 59.070312 32.117188 59.070312 32.117188 59.074219 31.851562 C 59.082031 31.421875 59.09375 30.992188 59.109375 30.5625 C 58.699219 30.511719 58.699219 30.511719 58.28125 30.457031 C 57.386719 30.316406 57.386719 30.316406 56.863281 30.035156 C 56.398438 29.78125 56.398438 29.78125 55.832031 29.800781 C 55.105469 30.09375 54.832031 30.382812 54.308594 30.953125 C 53.523438 31.785156 53.523438 31.785156 52.78125 31.976562 C 52.015625 31.746094 51.699219 31.460938 51.226562 30.8125 C 51.132812 30.230469 51.132812 30.230469 51.226562 29.570312 C 51.714844 28.960938 51.714844 28.960938 52.335938 28.375 C 52.542969 28.175781 52.75 27.980469 52.960938 27.777344 C 53.121094 27.632812 53.28125 27.484375 53.445312 27.332031 C 53.375 27.164062 53.304688 26.996094 53.230469 26.824219 C 53.09375 26.492188 53.09375 26.492188 52.953125 26.152344 C 52.859375 25.933594 52.769531 25.714844 52.675781 25.488281 C 52.460938 24.847656 52.460938 24.847656 52.460938 23.855469 C 52.203125 23.867188 51.945312 23.878906 51.679688 23.890625 C 51.339844 23.898438 51 23.90625 50.660156 23.917969 C 50.488281 23.925781 50.320312 23.933594 50.144531 23.941406 C 48.886719 23.964844 48.886719 23.964844 48.273438 23.402344 C 47.925781 22.640625 48.050781 22.164062 48.273438 21.371094 C 48.765625 20.871094 48.765625 20.871094 49.621094 20.824219 C 49.960938 20.828125 50.304688 20.832031 50.644531 20.839844 C 50.816406 20.84375 50.992188 20.847656 51.171875 20.847656 C 51.601562 20.855469 52.03125 20.863281 52.460938 20.871094 C 52.496094 20.597656 52.53125 20.320312 52.566406 20.035156 C 52.707031 19.132812 52.707031 19.132812 52.984375 18.589844 C 53.242188 18.152344 53.242188 18.152344 53.144531 17.675781 C 52.839844 16.832031 52.214844 16.308594 51.597656 15.679688 C 51.144531 15.035156 51.136719 14.6875 51.226562 13.914062 C 51.488281 13.464844 51.488281 13.464844 51.96875 13.167969 C 52.753906 13 52.753906 13 53.691406 13.167969 C 54.425781 13.765625 55.046875 14.4375 55.660156 15.15625 C 56.285156 14.90625 56.910156 14.652344 57.523438 14.382812 C 58.125 14.164062 58.125 14.164062 59.109375 14.164062 C 59.097656 13.800781 59.097656 13.800781 59.082031 13.429688 C 59.078125 13.113281 59.070312 12.796875 59.0625 12.472656 C 59.050781 12 59.050781 12 59.039062 11.519531 C 59.109375 10.683594 59.109375 10.683594 59.4375 10.207031 C 60.082031 9.789062 60.578125 9.84375 61.328125 9.9375 Z M 61.328125 9.9375 "></path>
<path style=" stroke:none;fill-rule:nonzero;fill:rgb(92.941176%,92.941176%,92.941176%);fill-opacity:1;" d="M 26.445312 15.171875 C 28.199219 16.1875 29.085938 17.394531 29.664062 19.332031 C 29.785156 19.820312 29.886719 20.316406 29.984375 20.8125 C 30.359375 21.789062 30.742188 21.992188 31.585938 22.539062 C 32.328125 23.089844 32.71875 23.722656 33.003906 24.601562 C 33.207031 26.078125 33.128906 27.324219 32.265625 28.574219 C 31.15625 29.671875 30.40625 30.097656 28.859375 30.109375 C 28.558594 30.113281 28.257812 30.117188 27.949219 30.121094 C 27.617188 30.121094 27.289062 30.125 26.957031 30.125 C 26.707031 30.128906 26.707031 30.128906 26.453125 30.128906 C 25.574219 30.132812 24.695312 30.136719 23.8125 30.140625 C 22.90625 30.144531 22 30.152344 21.09375 30.160156 C 20.394531 30.167969 19.695312 30.167969 18.996094 30.171875 C 18.5 30.171875 18.003906 30.179688 17.507812 30.1875 C 14.714844 30.179688 14.714844 30.179688 13.546875 29.074219 C 12.652344 28.109375 12.234375 27.128906 12.175781 25.8125 C 12.253906 24.371094 12.847656 23.609375 13.792969 22.566406 C 14.9375 21.867188 16.1875 21.644531 17.488281 21.371094 C 17.527344 21.152344 17.570312 20.9375 17.613281 20.714844 C 18.1875 17.957031 19.011719 16.574219 21.335938 14.957031 C 23.058594 14.34375 24.78125 14.40625 26.445312 15.171875 Z M 26.445312 15.171875 "></path>
<path style=" stroke:none;fill-rule:nonzero;fill:rgb(1.568627%,1.960784%,1.960784%);fill-opacity:1;" d="M 29.246094 13.253906 C 30.789062 14.402344 32.304688 16.3125 32.605469 18.265625 C 32.632812 18.648438 32.648438 19.035156 32.648438 19.417969 C 32.683594 19.570312 32.71875 19.722656 32.757812 19.878906 C 33.210938 20.148438 33.210938 20.148438 33.742188 20.375 C 35.4375 21.972656 36.226562 23.4375 36.34375 25.765625 C 36.292969 27.871094 35.632812 29.527344 34.25 31.109375 C 32.53125 32.726562 30.675781 33.316406 28.34375 33.339844 C 28.054688 33.34375 27.769531 33.347656 27.472656 33.351562 C 27.164062 33.351562 26.851562 33.355469 26.535156 33.355469 C 26.054688 33.359375 26.054688 33.359375 25.5625 33.363281 C 24.886719 33.367188 24.207031 33.367188 23.53125 33.371094 C 22.667969 33.375 21.804688 33.382812 20.941406 33.390625 C 20.113281 33.398438 19.28125 33.402344 18.453125 33.402344 C 18.148438 33.40625 17.839844 33.410156 17.523438 33.414062 C 14.980469 33.410156 12.910156 32.90625 11.082031 31.0625 C 9.578125 29.367188 9.027344 27.480469 9.097656 25.222656 C 9.335938 23.007812 10.378906 21.320312 12.085938 19.929688 C 12.609375 19.597656 13.117188 19.425781 13.699219 19.226562 C 14.46875 18.914062 14.722656 18.738281 15.121094 17.992188 C 15.316406 17.472656 15.507812 16.949219 15.691406 16.425781 C 16.625 14.148438 18.511719 12.878906 20.6875 11.925781 C 23.710938 10.789062 26.605469 11.554688 29.246094 13.253906 Z M 18.769531 17.15625 C 17.972656 18.453125 17.71875 19.882812 17.488281 21.371094 C 17.195312 21.425781 17.195312 21.425781 16.902344 21.480469 C 15.21875 21.84375 13.921875 22.230469 12.808594 23.605469 C 12.136719 24.71875 12.132812 25.816406 12.316406 27.085938 C 12.773438 28.246094 13.449219 29.164062 14.496094 29.851562 C 15.730469 30.355469 17.148438 30.207031 18.457031 30.199219 C 18.792969 30.199219 19.128906 30.199219 19.464844 30.203125 C 20.171875 30.203125 20.875 30.199219 21.578125 30.195312 C 22.476562 30.191406 23.375 30.195312 24.277344 30.199219 C 24.972656 30.203125 25.664062 30.203125 26.359375 30.199219 C 26.851562 30.199219 27.34375 30.203125 27.835938 30.203125 C 30.007812 30.199219 30.007812 30.199219 31.773438 29.074219 C 32.882812 27.828125 33.09375 26.871094 33.070312 25.238281 C 32.96875 24.261719 32.671875 23.585938 32.019531 22.859375 C 31.6875 22.636719 31.355469 22.421875 31.015625 22.207031 C 30.027344 21.527344 29.855469 20.925781 29.617188 19.753906 C 29.566406 19.472656 29.515625 19.191406 29.464844 18.898438 C 29.132812 17.273438 28.140625 16.355469 26.84375 15.40625 C 23.964844 13.71875 20.78125 14.578125 18.769531 17.15625 Z M 18.769531 17.15625 "></path>
<path style=" stroke:none;fill-rule:nonzero;fill:rgb(1.176471%,1.176471%,1.176471%);fill-opacity:1;" d="M 19.242188 48.546875 C 20.632812 48.773438 21.292969 49.621094 22.167969 50.691406 C 22.289062 50.9375 22.289062 50.9375 22.414062 51.1875 C 23.265625 50.832031 23.664062 50.402344 24.214844 49.664062 C 24.867188 48.882812 25.003906 48.726562 26.046875 48.53125 C 26.84375 48.703125 26.84375 48.703125 27.339844 48.96875 C 27.757812 49.789062 27.582031 50.3125 27.339844 51.1875 C 26.90625 51.832031 26.402344 52.375 25.859375 52.925781 C 25.742188 53.050781 25.621094 53.175781 25.496094 53.304688 C 25.210938 53.597656 24.921875 53.882812 24.628906 54.167969 C 24.246094 54.554688 24.328125 54.941406 24.304688 55.476562 C 24.289062 55.792969 24.289062 55.792969 24.273438 56.117188 C 24.265625 56.339844 24.253906 56.566406 24.246094 56.792969 C 24.226562 57.128906 24.226562 57.128906 24.210938 57.472656 C 24.1875 58.027344 24.160156 58.582031 24.136719 59.140625 C 27.128906 59.375 27.128906 59.375 29.777344 58.21875 C 30.199219 57.824219 30.585938 57.417969 30.964844 56.980469 C 31.617188 56.226562 31.960938 55.921875 32.9375 55.675781 C 33.742188 55.660156 33.742188 55.660156 34.21875 55.910156 C 34.675781 56.773438 34.683594 57.171875 34.480469 58.144531 C 33.878906 58.792969 33.242188 59.347656 32.554688 59.90625 C 32.378906 60.0625 32.199219 60.21875 32.019531 60.382812 C 32.019531 60.546875 32.019531 60.710938 32.019531 60.878906 C 32.441406 61.3125 32.441406 61.3125 32.972656 61.75 C 33.492188 62.191406 33.996094 62.628906 34.480469 63.113281 C 34.542969 63.984375 34.542969 63.984375 34.480469 64.855469 C 33.988281 65.351562 33.988281 65.351562 33.21875 65.492188 C 32.054688 65.320312 31.632812 64.917969 30.808594 64.113281 C 30.636719 63.949219 30.46875 63.78125 30.292969 63.613281 C 30.082031 63.390625 29.867188 63.171875 29.644531 62.945312 C 28.664062 62.128906 27.609375 62.175781 26.382812 62.167969 C 26.167969 62.160156 25.949219 62.15625 25.726562 62.148438 C 25.199219 62.132812 24.667969 62.128906 24.136719 62.121094 C 24.007812 64.890625 24.007812 64.890625 24.730469 67.480469 C 25.167969 67.898438 25.613281 68.238281 26.105469 68.582031 C 26.675781 69.113281 27.191406 69.644531 27.585938 70.320312 C 27.601562 71.269531 27.601562 71.269531 27.339844 72.0625 C 26.597656 72.558594 26.597656 72.558594 25.8125 72.605469 C 24.433594 72.171875 23.773438 71.199219 22.90625 70.074219 C 22.136719 70.398438 22.136719 70.398438 21.671875 71.066406 C 21.511719 71.066406 21.347656 71.066406 21.179688 71.066406 C 21.113281 71.21875 21.050781 71.375 20.980469 71.53125 C 20.6875 72.0625 20.6875 72.0625 19.949219 72.558594 C 19.058594 72.496094 19.058594 72.496094 18.226562 72.308594 C 17.824219 71.503906 17.863281 70.964844 17.980469 70.074219 C 18.347656 69.585938 18.75 69.199219 19.207031 68.796875 C 20.632812 67.480469 20.632812 67.480469 21.109375 65.664062 C 21.125 65.238281 21.132812 64.8125 21.136719 64.386719 C 21.140625 64.171875 21.148438 63.953125 21.152344 63.726562 C 21.167969 63.191406 21.175781 62.65625 21.179688 62.121094 C 18.183594 61.882812 18.183594 61.882812 15.539062 63.050781 C 15.117188 63.449219 14.730469 63.859375 14.351562 64.304688 C 13.6875 65.078125 13.410156 65.339844 12.378906 65.460938 C 11.574219 65.351562 11.574219 65.351562 11.082031 65.085938 C 10.777344 64.492188 10.738281 64.019531 10.855469 63.359375 C 11.351562 62.289062 12.390625 61.589844 13.300781 60.878906 C 12.847656 59.847656 12.195312 59.351562 11.328125 58.640625 C 10.835938 57.898438 10.835938 57.898438 10.898438 57.011719 C 11.082031 56.15625 11.082031 56.15625 11.574219 55.660156 C 12.25 55.53125 12.25 55.53125 13.054688 55.660156 C 13.628906 56.128906 14.089844 56.703125 14.578125 57.261719 C 15.765625 58.511719 16.683594 59.082031 18.414062 59.207031 C 19.34375 59.222656 20.253906 59.199219 21.179688 59.140625 C 21.382812 56.191406 21.382812 56.191406 20.386719 53.523438 C 19.777344 52.867188 19.144531 52.273438 18.472656 51.683594 C 17.867188 50.773438 17.902344 50.277344 17.980469 49.199219 C 18.472656 48.703125 18.472656 48.703125 19.242188 48.546875 Z M 19.242188 48.546875 "></path>
<path style=" stroke:none;fill-rule:nonzero;fill:rgb(1.568627%,1.960784%,1.960784%);fill-opacity:1;" d="M 60.542969 49.851562 C 61.328125 49.945312 61.328125 49.945312 61.777344 50.394531 C 62.554688 51.546875 63.148438 52.769531 63.757812 54.015625 C 63.890625 54.28125 64.019531 54.546875 64.15625 54.824219 C 68.039062 62.8125 68.039062 62.8125 67.484375 65.847656 C 66.625 68.195312 65.3125 69.886719 63.089844 71.03125 C 61.25 71.703125 59.3125 71.621094 57.523438 70.816406 C 55.636719 69.703125 54.277344 67.980469 53.691406 65.847656 C 52.933594 62.171875 55.425781 58.078125 56.925781 54.851562 C 57.019531 54.644531 57.117188 54.433594 57.21875 54.21875 C 59.222656 50.03125 59.222656 50.03125 60.542969 49.851562 Z M 60.542969 49.851562 "></path>
<path style=" stroke:none;fill-rule:nonzero;fill:rgb(98.823529%,30.588235%,30.588235%);fill-opacity:1;" d="M 63.144531 17.6875 C 64.355469 18.578125 65.28125 19.410156 65.757812 20.871094 C 65.945312 22.464844 65.9375 23.996094 65.121094 25.40625 C 64.3125 26.421875 63.289062 27.171875 62.066406 27.582031 C 60.277344 27.753906 58.761719 27.808594 57.28125 26.695312 C 56.152344 25.667969 55.519531 24.632812 55.316406 23.105469 C 55.265625 21.371094 55.398438 20.226562 56.46875 18.835938 C 58.15625 17.046875 60.957031 16.351562 63.144531 17.6875 Z M 63.144531 17.6875 "></path>
<path style=" stroke:none;fill-rule:nonzero;fill:rgb(53.72549%,86.27451%,98.431373%);fill-opacity:1;" d="M 60.339844 54.914062 C 60.503906 54.914062 60.667969 54.914062 60.832031 54.914062 C 61.273438 55.902344 61.707031 56.890625 62.140625 57.882812 C 62.328125 58.296875 62.328125 58.296875 62.515625 58.722656 C 64.796875 63.925781 64.796875 63.925781 63.988281 66.160156 C 63.410156 67.046875 62.757812 67.609375 61.820312 68.085938 C 60.71875 68.1875 59.699219 68.222656 58.664062 67.804688 C 57.015625 66.382812 57.015625 66.382812 56.773438 65.332031 C 56.59375 62.210938 58.292969 59.152344 59.683594 56.472656 C 60.105469 55.6875 60.105469 55.6875 60.339844 54.914062 Z M 60.339844 54.914062 "></path>
<path style=" stroke:none;fill-rule:nonzero;fill:rgb(0.392157%,0.392157%,0.392157%);fill-opacity:1;" d="M 74.871094 56.40625 C 75.378906 56.792969 75.585938 57.015625 75.707031 57.648438 C 75.707031 57.839844 75.710938 58.027344 75.710938 58.222656 C 75.714844 58.441406 75.71875 58.65625 75.71875 58.878906 C 75.71875 59.109375 75.71875 59.34375 75.71875 59.582031 C 75.71875 59.820312 75.71875 60.058594 75.722656 60.304688 C 75.722656 60.8125 75.722656 61.316406 75.722656 61.824219 C 75.71875 62.597656 75.726562 63.371094 75.734375 64.148438 C 75.734375 64.640625 75.734375 65.128906 75.734375 65.621094 C 75.738281 65.96875 75.738281 65.96875 75.742188 66.324219 C 75.726562 67.925781 75.726562 67.925781 75.152344 68.738281 C 74.625 69.078125 74.625 69.078125 73.996094 69.0625 C 73.351562 68.8125 73.085938 68.625 72.65625 68.085938 C 72.5625 67.585938 72.5625 67.585938 72.558594 67.007812 C 72.558594 66.792969 72.554688 66.574219 72.554688 66.351562 C 72.554688 66.121094 72.554688 65.886719 72.558594 65.648438 C 72.558594 65.40625 72.554688 65.167969 72.554688 64.917969 C 72.554688 64.414062 72.554688 63.90625 72.558594 63.398438 C 72.5625 62.621094 72.558594 61.84375 72.554688 61.066406 C 72.554688 60.574219 72.554688 60.082031 72.558594 59.589844 C 72.554688 59.355469 72.554688 59.125 72.554688 58.882812 C 72.554688 58.667969 72.558594 58.449219 72.558594 58.226562 C 72.5625 58.039062 72.5625 57.847656 72.5625 57.652344 C 72.804688 56.355469 73.71875 56.261719 74.871094 56.40625 Z M 74.871094 56.40625 "></path>
<path style=" stroke:none;fill-rule:nonzero;fill:rgb(5.490196%,5.490196%,5.490196%);fill-opacity:1;" d="M 18.734375 63.425781 C 19.457031 63.613281 19.457031 63.613281 19.949219 64.109375 C 20.066406 65.015625 20.054688 65.445312 19.535156 66.207031 C 18.964844 66.59375 18.964844 66.59375 18.332031 66.59375 C 17.59375 66.289062 17.34375 66.074219 16.992188 65.351562 C 17.023438 64.574219 17.023438 64.574219 17.242188 63.859375 C 17.980469 63.363281 17.980469 63.363281 18.734375 63.425781 Z M 18.734375 63.425781 "></path>
<path style=" stroke:none;fill-rule:nonzero;fill:rgb(5.490196%,5.490196%,5.490196%);fill-opacity:1;" d="M 27.585938 63.613281 C 28.078125 64.359375 28.078125 64.359375 28.03125 65.101562 C 27.734375 66.214844 27.734375 66.214844 27.09375 66.59375 C 26.335938 66.5625 26.335938 66.5625 25.613281 66.34375 C 25.042969 65.484375 25.015625 65.121094 25.121094 64.109375 C 25.699219 63.046875 26.550781 63.347656 27.585938 63.613281 Z M 27.585938 63.613281 "></path>
<path style=" stroke:none;fill-rule:nonzero;fill:rgb(5.098039%,5.098039%,5.098039%);fill-opacity:1;" d="M 19.210938 54.914062 C 19.671875 55.195312 19.671875 55.195312 19.949219 55.660156 C 20.046875 56.441406 20.078125 56.933594 19.671875 57.617188 C 18.984375 58.03125 18.515625 58.011719 17.734375 57.898438 C 17.152344 57.371094 17.015625 57.042969 16.902344 56.265625 C 16.992188 55.660156 16.992188 55.660156 17.269531 55.210938 C 17.949219 54.777344 18.425781 54.816406 19.210938 54.914062 Z M 19.210938 54.914062 "></path>
<path style=" stroke:none;fill-rule:nonzero;fill:rgb(4.313725%,4.313725%,4.313725%);fill-opacity:1;" d="M 27.339844 54.914062 C 27.816406 55.179688 27.816406 55.179688 28.078125 55.660156 C 27.996094 57.234375 27.996094 57.234375 27.339844 57.898438 C 26.574219 57.980469 26.066406 58.023438 25.398438 57.617188 C 24.992188 56.933594 25.023438 56.441406 25.121094 55.660156 C 25.664062 54.746094 26.347656 54.789062 27.339844 54.914062 Z M 27.339844 54.914062 "></path>
<path style=" stroke:none;fill-rule:nonzero;fill:rgb(2.745098%,2.745098%,2.745098%);fill-opacity:1;" d="M 74.871094 51.933594 C 75.335938 52.210938 75.335938 52.210938 75.609375 52.679688 C 75.707031 53.460938 75.742188 53.949219 75.335938 54.636719 C 74.65625 55.046875 74.171875 55.011719 73.394531 54.914062 C 72.933594 54.636719 72.933594 54.636719 72.65625 54.167969 C 72.558594 53.386719 72.527344 52.898438 72.933594 52.210938 C 73.613281 51.800781 74.097656 51.835938 74.871094 51.933594 Z M 74.871094 51.933594 "></path>
</g>
</svg>